<?xml version="1.0" standalone="no"?>
<!DOCTYPE svg PUBLIC "-//W3C//DTD SVG 20010904//EN"
 "http://www.w3.org/TR/2001/REC-SVG-20010904/DTD/svg10.dtd">
<svg version="1.0" xmlns="http://www.w3.org/2000/svg"
 width="1077.000000pt" height="558.000000pt" viewBox="0 0 1077.000000 558.000000"
 preserveAspectRatio="xMidYMid meet">

<g transform="translate(0.000000,558.000000) scale(0.100000,-0.100000)"
fill="#000000" stroke="none">
<path d="M3810 3965 l0 -885 240 0 c185 0 240 3 242 13 0 6 2 217 4 467 2 530
1 480 17 480 13 0 137 -172 137 -190 0 -6 5 -10 10 -10 6 0 10 -4 10 -10 0 -8
114 -185 140 -217 6 -7 10 -15 10 -18 0 -9 113 -175 119 -175 3 0 14 12 23 28
35 55 43 67 49 72 3 3 46 66 94 140 48 74 91 137 94 140 4 3 10 12 14 20 12
29 172 254 183 257 15 5 24 -247 24 -664 l0 -333 235 0 235 0 -2 883 -3 882
-252 3 c-252 2 -252 2 -268 -20 -9 -13 -47 -72 -84 -133 -37 -60 -113 -182
-167 -270 -54 -88 -104 -169 -110 -180 -26 -49 -48 -75 -63 -75 -15 1 -71 80
-71 101 0 5 -4 9 -10 9 -5 0 -10 5 -10 11 0 6 -13 30 -30 54 -16 24 -30 46
-30 49 0 3 -29 49 -63 103 -35 54 -66 103 -68 109 -2 6 -38 63 -79 127 l-75
117 -247 0 -248 0 0 -885z"/>
<path d="M6028 4274 c-5 -4 -8 -279 -8 -611 l0 -603 160 0 160 0 0 178 c0 125
4 182 12 190 7 7 39 12 74 12 78 0 81 -3 221 -216 l107 -164 184 0 184 0 -18
28 c-9 15 -71 105 -136 200 -65 96 -118 181 -118 190 0 10 17 25 40 36 45 21
115 85 143 129 73 114 75 309 4 430 -60 101 -182 173 -327 191 -76 9 -674 18
-682 10z m660 -300 c51 -25 75 -68 75 -134 0 -66 -24 -109 -76 -137 -41 -22
-309 -32 -332 -13 -12 10 -15 41 -15 150 0 75 3 140 7 143 3 4 75 7 158 7 118
0 159 -4 183 -16z"/>
<path d="M770 1793 c-48 -111 -68 -159 -80 -188 -4 -11 -15 -36 -23 -55 -9
-19 -24 -57 -35 -85 -11 -27 -34 -80 -51 -118 -17 -37 -31 -70 -31 -72 0 -3
-10 -27 -21 -53 -23 -51 -23 -50 -99 -232 -28 -69 -60 -143 -70 -165 -39 -87
-50 -113 -50 -124 0 -8 50 -11 158 -11 158 0 182 5 182 37 0 13 25 75 58 143
l17 35 238 3 237 2 25 -55 c14 -30 36 -80 50 -110 l25 -55 160 0 c177 0 178 0
146 66 -8 16 -21 46 -30 67 -9 20 -22 52 -30 70 -8 17 -31 73 -51 122 -42 103
-54 131 -84 197 -11 26 -21 50 -21 53 0 2 -11 28 -24 57 -29 65 -77 178 -118
278 -35 86 -54 128 -97 223 l-31 67 -153 0 -154 0 -43 -97z m274 -458 c35 -88
61 -166 59 -172 -4 -10 -41 -13 -139 -13 -153 0 -157 2 -126 71 16 37 60 146
103 257 18 48 39 19 103 -143z"/>
<path d="M5985 1809 c-86 -21 -122 -33 -187 -65 -37 -19 -77 -42 -90 -51 -78
-63 -178 -184 -178 -217 0 -9 -4 -16 -8 -16 -10 0 -40 -104 -53 -182 -6 -35
-8 -94 -4 -133 18 -203 114 -365 277 -468 112 -71 181 -89 360 -94 118 -3 149
-1 220 18 87 23 194 72 266 121 l42 29 -2 267 -3 267 -262 3 -263 2 0 -109 0
-109 88 -7 c48 -3 98 -7 112 -8 24 -2 25 -5 28 -83 l3 -81 -48 -24 c-40 -19
-65 -23 -148 -23 -91 -1 -105 2 -157 28 -106 53 -171 144 -187 262 -23 157 53
309 186 375 41 20 62 24 143 23 104 -1 151 -16 236 -74 51 -36 40 -42 131 70
33 42 68 82 77 89 9 7 16 19 16 26 0 18 -115 92 -190 123 -113 45 -303 64
-405 41z"/>
<path d="M4742 1179 l3 -432 323 -1 322 -1 0 97 0 98 -207 2 -208 3 -3 333 -2
332 -115 0 -115 0 2 -431z"/>
<path d="M1720 1160 l0 -430 272 0 c316 0 353 7 431 79 64 59 82 133 56 221
-15 48 -43 80 -98 111 -25 13 -46 29 -48 35 -2 7 14 25 36 40 97 69 109 217
24 295 -73 68 -129 79 -425 79 l-248 0 0 -430z m481 221 c51 -51 32 -112 -44
-140 -39 -15 -190 -14 -205 1 -13 13 -17 149 -5 161 3 4 55 7 115 7 108 0 110
0 139 -29z m-9 -303 c86 -26 104 -120 30 -159 -17 -10 -64 -14 -151 -14 l-126
0 -3 79 c-2 44 -1 85 2 93 7 17 191 18 248 1z"/>
<path d="M2597 1583 c-4 -3 -7 -197 -7 -430 l1 -423 22 -6 c43 -10 457 2 469
14 7 7 20 12 30 12 10 0 26 4 36 9 9 5 35 17 57 27 49 21 145 116 169 167 63
136 62 280 -5 421 -22 46 -111 129 -170 158 -101 49 -159 58 -386 58 -115 0
-213 -3 -216 -7z m475 -220 c36 -21 62 -45 83 -78 26 -42 30 -57 30 -124 0
-87 -16 -130 -67 -176 -57 -53 -143 -77 -238 -66 l-55 6 -3 215 c-1 118 0 226
3 239 6 23 8 24 100 19 80 -4 101 -9 147 -35z"/>
<path d="M3860 1140 l0 -430 345 0 345 0 0 90 0 90 -232 2 -233 3 -3 78 c-3
68 -1 77 15 78 10 0 105 0 211 -1 l192 -1 0 90 0 91 -210 0 -210 0 0 75 0 75
231 2 232 3 -1 48 c0 26 -1 67 -1 92 l-1 45 -340 0 -340 0 0 -430z"/>
<path d="M6780 1140 l0 -430 109 0 108 0 -3 153 c-1 84 1 159 6 167 6 10 46
13 164 13 87 -1 160 -4 164 -8 4 -4 9 -78 11 -166 l3 -159 109 0 109 0 -2 428
-3 427 -105 0 -105 0 -5 -158 c-4 -125 -8 -160 -20 -168 -16 -11 -307 -6 -318
6 -4 3 -7 75 -7 158 0 89 -4 155 -10 159 -5 4 -54 8 -107 8 l-98 0 0 -430z"/>
<path d="M8003 1523 c-7 -16 -26 -62 -44 -103 -17 -41 -40 -95 -51 -120 -34
-76 -63 -146 -78 -185 -5 -11 -15 -36 -23 -55 -8 -19 -27 -64 -42 -100 -15
-36 -34 -81 -42 -100 -8 -19 -18 -44 -23 -55 -4 -11 -17 -40 -29 -64 -12 -24
-20 -45 -18 -47 7 -7 189 -16 212 -10 14 4 25 12 25 19 0 12 28 79 49 117 7
12 38 15 186 15 l178 0 32 -75 32 -75 114 0 c129 0 127 -1 90 80 -25 53 -42
93 -86 200 -20 50 -43 105 -51 123 -8 17 -20 47 -28 65 -8 17 -23 52 -34 77
-11 25 -39 92 -63 150 -23 58 -46 109 -51 115 -4 5 -8 17 -8 26 0 25 -20 29
-133 29 -102 0 -102 0 -114 -27z m134 -265 c8 -11 23 -47 54 -125 5 -13 13
-33 19 -45 5 -13 11 -34 12 -48 3 -25 3 -25 -95 -28 -106 -3 -121 5 -100 51
15 33 29 67 48 117 9 25 21 55 26 68 10 25 22 28 36 10z"/>
<path d="M8707 1543 c-4 -3 -7 -197 -7 -430 l0 -423 110 0 110 0 0 230 c0 223
1 230 20 230 11 0 20 -4 20 -8 0 -4 27 -41 60 -82 34 -41 66 -82 73 -90 7 -8
23 -29 37 -46 14 -17 36 -46 50 -64 14 -18 39 -50 55 -70 17 -20 41 -51 54
-68 l24 -32 99 0 98 0 -2 428 -3 427 -104 0 -104 0 1 -195 c2 -222 -1 -250
-29 -250 -10 0 -19 4 -19 9 0 7 -58 84 -118 156 -9 11 -45 58 -81 105 -36 47
-72 92 -81 100 -9 8 -26 30 -39 48 l-22 32 -98 0 c-54 0 -101 -3 -104 -7z"/>
<path d="M9680 1534 c0 -9 8 -28 19 -42 19 -28 140 -224 171 -277 9 -16 33
-55 53 -86 80 -125 77 -114 77 -284 l0 -155 110 0 110 0 0 162 0 161 48 80
c60 101 66 110 147 242 37 61 77 126 87 145 11 19 24 39 29 44 20 22 3 26
-110 26 l-119 0 -30 -47 c-16 -27 -41 -68 -54 -93 -106 -192 -110 -196 -145
-132 -19 33 -41 73 -77 137 -7 11 -27 46 -45 78 l-33 57 -119 0 c-102 0 -119
-2 -119 -16z"/>
</g>
</svg>
